<svg xmlns="http://www.w3.org/2000/svg" xmlns:xlink="http://www.w3.org/1999/xlink" width="88" height="88"
  viewBox="0 0 88 88">
  <defs>
    <radialGradient id="radial-gradient" cx="0.5" cy="0.5" r="0.5" gradientUnits="objectBoundingBox">
      <stop offset="0" stop-color="#13aa52" />
      <stop offset="1" stop-color="#0a5529" stop-opacity="0.8" />
    </radialGradient>
    <filter id="Trazado_1220" x="0" y="0" width="88" height="88" filterUnits="userSpaceOnUse">
      <feOffset dx="-4" dy="7" input="SourceAlpha" />
      <feGaussianBlur stdDeviation="3" result="blur" />
      <feFlood flood-color="#306d49" flood-opacity="0.4" />
      <feComposite operator="in" in2="blur" />
      <feComposite in="SourceGraphic" />
    </filter>
  </defs>
  <g id="Grupo_581" data-name="Grupo 581" transform="translate(1663 -9452.71)">
    <g transform="matrix(1, 0, 0, 1, -1663, 9452.71)" filter="url(#Trazado_1220)">
      <path id="Trazado_1220-2" data-name="Trazado 1220" d="M35,0A35,35,0,1,1,0,35,35,35,0,0,1,35,0Z"
        transform="translate(13 2)" fill="url(#radial-gradient)" />
    </g>
    <g id="Grupo_546" data-name="Grupo 546" transform="translate(-1631.54 9469.034)">
      <g id="Grupo_508" data-name="Grupo 508">
        <path id="path748"
          d="M502.88-285.347c.45-1.746,1.2-4.1,1.754-4.652a2.011,2.011,0,0,1,1.429-.6,1.685,1.685,0,0,1,.449.056,1.174,1.174,0,0,1,.138.036l.052.015a.58.58,0,0,1,.133.046.366.366,0,0,1,.081.036c.057.026.113.056.168.087h.005a2.5,2.5,0,0,1,.214.148,1.332,1.332,0,0,1,.2.174,2.039,2.039,0,0,1,.551,1.026v.01a2.016,2.016,0,0,1-.551,1.834,9.327,9.327,0,0,1-2.87,1.261c-.318.1-1.461.44-1.754.521"
          transform="translate(-498.221 317.434)" fill="rgba(255,255,255,0.3)" />
        <path id="path750"
          d="M505.536-290.784a1.673,1.673,0,0,0-1.189.5,13.1,13.1,0,0,0-1.511,3.918c.436-.129.969-.289,1.17-.351a7.9,7.9,0,0,0,2.729-1.176,1.676,1.676,0,0,0,.46-1.526c0-.012,0-.024-.006-.037a1.7,1.7,0,0,0-.454-.829,1.008,1.008,0,0,0-.156-.136,1.9,1.9,0,0,0-.169-.119l-.02-.01c-.047-.026-.093-.051-.141-.073-.017-.006-.079-.035-.095-.042a.26.26,0,0,0-.055-.018l-.062-.018a.931.931,0,0,0-.116-.03,1.4,1.4,0,0,0-.386-.051Zm-3.183,5.25a.341.341,0,0,1-.239-.1.342.342,0,0,1-.091-.328c.172-.668,1.069-4.035,1.842-4.808a2.348,2.348,0,0,1,1.67-.7,2.019,2.019,0,0,1,.539.069,1.3,1.3,0,0,1,.16.042l.044.014a.729.729,0,0,1,.156.053.72.72,0,0,1,.128.06,1.285,1.285,0,0,1,.13.065.4.4,0,0,1,.052.027,2.717,2.717,0,0,1,.243.169,1.59,1.59,0,0,1,.236.206,2.371,2.371,0,0,1,.637,1.193.3.3,0,0,1,.006.037,2.355,2.355,0,0,1-.649,2.114c-.137.138-.557.563-3.008,1.345-.322.1-1.472.444-1.766.525a.354.354,0,0,1-.091.012"
          transform="translate(-497.694 317.961)" fill="#fff" />
        <path id="path752"
          d="M512.845-297.1a1.249,1.249,0,0,0-.168-.087.367.367,0,0,0-.081-.036.7.7,0,0,0-.133-.046l-.052-.015a.207.207,0,0,0-.05-.021,35.38,35.38,0,0,1,3.36-4.448,8.387,8.387,0,0,1,1.456,1.154,8.16,8.16,0,0,1,1.184,1.5,33.9,33.9,0,0,1-4.536,3.4.157.157,0,0,0-.009-.046v-.01a2.039,2.039,0,0,0-.551-1.026,1.334,1.334,0,0,0-.2-.174,1.7,1.7,0,0,0-.214-.148h-.005"
          transform="translate(-503.981 324.212)" fill="#fff" />
        <path id="path754"
          d="M512.445-297.935a.207.207,0,0,1,.026.014,1.969,1.969,0,0,1,.258.178,1.587,1.587,0,0,1,.236.206,2.372,2.372,0,0,1,.518.793,35.575,35.575,0,0,0,3.886-2.944,7.792,7.792,0,0,0-.98-1.195,8,8,0,0,0-1.152-.947A36.628,36.628,0,0,0,512.319-298a1.117,1.117,0,0,1,.126.063Zm.834,2.054a.344.344,0,0,1-.169-.045.337.337,0,0,1-.168-.253.33.33,0,0,1-.01-.055,1.7,1.7,0,0,0-.454-.83,1.009,1.009,0,0,0-.156-.136,1.7,1.7,0,0,0-.16-.115.329.329,0,0,1-.047-.025.849.849,0,0,0-.123-.062c-.012,0-.069-.03-.08-.036a.378.378,0,0,0-.071-.025l-.062-.018a.4.4,0,0,1-.1-.045.3.3,0,0,1-.2-.195.325.325,0,0,1,.045-.287,35.755,35.755,0,0,1,3.394-4.494.341.341,0,0,1,.438-.065,8.774,8.774,0,0,1,1.515,1.2A8.488,8.488,0,0,1,518.1-299.8a.34.34,0,0,1-.067.435,34.314,34.314,0,0,1-4.586,3.437.335.335,0,0,1-.172.047"
          transform="translate(-503.435 324.739)" fill="#fff" />
        <path id="path756"
          d="M522.38-315.856a8.385,8.385,0,0,0-1.456-1.154,51.948,51.948,0,0,1,9.071-8.285c1.946-1.318,2.881-1.568,3.234-1.568a.244.244,0,0,1,.158.036c.1.1.117.949-1.532,3.387a50.179,50.179,0,0,1-3.867,4.74c-.215.234-1.7,1.823-1.921,2.058-.843.848-1.63,1.5-2.5,2.288a8.163,8.163,0,0,0-1.184-1.5"
          transform="translate(-509.185 339.471)" fill="rgba(255,255,255,0.3)" />
        <path id="path758"
          d="M520.915-317.6a8.591,8.591,0,0,1,1.18.979,8.516,8.516,0,0,1,1.014,1.224c.145-.13.289-.256.431-.382.6-.529,1.165-1.029,1.761-1.628l.17-.182c.461-.493,1.559-1.668,1.742-1.867a49.231,49.231,0,0,0,3.836-4.7,8.951,8.951,0,0,0,1.486-2.868,8.831,8.831,0,0,0-2.875,1.487,50.121,50.121,0,0,0-8.744,7.937Zm2.124,3.061a.387.387,0,0,1-.049,0,.34.34,0,0,1-.241-.158,7.775,7.775,0,0,0-1.135-1.439,8.069,8.069,0,0,0-1.4-1.107.339.339,0,0,1-.155-.241.338.338,0,0,1,.083-.274,51.524,51.524,0,0,1,9.133-8.338c2.09-1.417,3.043-1.628,3.425-1.628a.537.537,0,0,1,.4.136c.408.408-.15,1.835-1.491,3.818A51.146,51.146,0,0,1,527.715-319c-.186.2-1.287,1.38-1.749,1.874l-.177.188c-.62.623-1.193,1.129-1.8,1.666-.237.208-.476.42-.723.642a.339.339,0,0,1-.228.088"
          transform="translate(-508.658 339.998)" fill="#fff" />
        <path id="path762"
          d="M491.685-350.033H492l31.6.393v-8.454a.261.261,0,0,0-.288-.222H491.967a.261.261,0,0,0-.283.222Zm32.255,1.073h-.659l-31.937-.393a.34.34,0,0,1-.34-.341v-8.4a.935.935,0,0,1,.963-.9h31.344a.938.938,0,0,1,.968.9v8.794a.341.341,0,0,1-.34.341"
          transform="translate(-491.004 358.996)" fill="#fff" />
        <path id="path766"
          d="M491.685-313.368H495.4c.273-1.022,1.075-3.852,1.775-4.553a2.348,2.348,0,0,1,1.67-.7,2.18,2.18,0,0,1,.372.031,37.129,37.129,0,0,1,3.268-4.29,51.537,51.537,0,0,1,9.136-8.343,9.726,9.726,0,0,1,3.088-1.588l.029-2.377-23.055-.286Zm3.979.68h-4.32a.34.34,0,0,1-.34-.34v-22.784a.34.34,0,0,1,.34-.34H492l23.085.291a.341.341,0,0,1,.336.345l-.036,3.012a.341.341,0,0,1-.34.336c-.136,0-.921.073-3.043,1.51a50.847,50.847,0,0,0-9.007,8.23,36.028,36.028,0,0,0-3.223,4.236.342.342,0,0,1-.036.156.341.341,0,0,1-.417.171.656.656,0,0,0-.089-.022,1.607,1.607,0,0,0-1.575.447,15,15,0,0,0-1.665,4.5.34.34,0,0,1-.33.255"
          transform="translate(-491.004 345.115)" fill="#fff" />
        <path id="path770"
          d="M491.685-312.238v8.057a.265.265,0,0,0,.282.222h31.344a.265.265,0,0,0,.288-.222v-30.447h-.319l-7.861-.1-.029,2.417a.454.454,0,0,1,.056.046c.408.408-.15,1.835-1.491,3.818a51.153,51.153,0,0,1-3.895,4.777c-.186.2-1.287,1.38-1.749,1.874l-.176.188c-.619.623-1.193,1.13-1.8,1.666-.237.208-.476.42-.722.642a35.835,35.835,0,0,1-4.4,3.327,2.356,2.356,0,0,1-.685,1.85c-.137.138-.557.563-3.008,1.345-.322.1-1.472.444-1.766.525a.351.351,0,0,1-.091.012Zm31.626,8.959H491.967a.935.935,0,0,1-.963-.9v-8.4a.34.34,0,0,1,.34-.34h4.273c.346-.1,1.4-.413,1.7-.505a7.905,7.905,0,0,0,2.729-1.176,1.676,1.676,0,0,0,.46-1.526.341.341,0,0,1,.245-.4.359.359,0,0,1,.081-.012,34.775,34.775,0,0,0,4.331-3.272c.243-.219.484-.433.722-.643.6-.529,1.165-1.028,1.761-1.628l.17-.182c.461-.492,1.56-1.667,1.742-1.867a49.278,49.278,0,0,0,3.836-4.7,8.3,8.3,0,0,0,1.5-2.937.313.313,0,0,1-.073-.054.357.357,0,0,1-.111-.244l.036-3.013a.343.343,0,0,1,.1-.239.329.329,0,0,1,.242-.1l8.852.1a.34.34,0,0,1,.34.34v30.788a.938.938,0,0,1-.968.9"
          transform="translate(-491.004 344.665)" fill="#fff" />
        <path id="path772"
          d="M491.344-286.454a.34.34,0,0,1-.34-.341v-6.828a.34.34,0,0,1,.34-.341.34.34,0,0,1,.341.341v6.828a.34.34,0,0,1-.341.341"
          transform="translate(-491.004 319.48)" fill="#fff" />
        <path id="path774"
          d="M523.311-317.61H519.25a.34.34,0,0,1-.34-.34.34.34,0,0,1,.34-.34h4.061a.265.265,0,0,0,.288-.222v-39.582a.261.261,0,0,0-.288-.222H491.967a.261.261,0,0,0-.283.222v24.955a.34.34,0,0,1-.341.34.34.34,0,0,1-.34-.34v-24.955a.935.935,0,0,1,.963-.9h31.344a.938.938,0,0,1,.968.9v39.582a.938.938,0,0,1-.968.9"
          transform="translate(-491.004 358.996)" fill="#fff" />
        <path id="path776"
          d="M519.25-267.518H491.967a.935.935,0,0,1-.963-.9v-7.8a.34.34,0,0,1,.34-.34.34.34,0,0,1,.341.34v7.8a.265.265,0,0,0,.283.222H519.25a.34.34,0,0,1,.34.34.34.34,0,0,1-.34.34"
          transform="translate(-491.004 308.904)" fill="#fff" />
        <path id="path778"
          d="M524.3-335.078h0l-31.278-.393a.341.341,0,0,1-.336-.345.34.34,0,0,1,.34-.336h0l31.278.393a.341.341,0,0,1,.336.344.341.341,0,0,1-.341.336"
          transform="translate(-492.024 345.115)" fill="#fff" />
        <path id="path780"
          d="M546.341-345.926a.34.34,0,0,1-.34-.334.339.339,0,0,1,.333-.346l3.9-.077h.007a.34.34,0,0,1,.34.334.339.339,0,0,1-.333.346l-3.9.077h-.007"
          transform="translate(-524.422 351.514)" fill="#fff" />
        <path id="path782"
          d="M520.5-345.807H507.926a.34.34,0,0,1-.341-.341.34.34,0,0,1,.341-.34H520.5a.34.34,0,0,1,.341.34.34.34,0,0,1-.341.341"
          transform="translate(-501.08 351.395)" fill="#fff" />
        <path id="path784"
          d="M527.129-298.714a.338.338,0,0,1-.252-.112.34.34,0,0,1,.025-.48c.249-.224.49-.437.728-.648.6-.529,1.165-1.029,1.761-1.628a.34.34,0,0,1,.481,0,.34.34,0,0,1,0,.481c-.612.615-1.185,1.122-1.793,1.658-.236.208-.476.42-.722.642a.341.341,0,0,1-.228.088"
          transform="translate(-512.748 324.17)" fill="#fff" />
        <path id="path786"
          d="M533.506-304.189a.339.339,0,0,1-.232-.092.339.339,0,0,1-.016-.48l.178-.191c.461-.494,1.558-1.666,1.74-1.864a.34.34,0,0,1,.481-.021.341.341,0,0,1,.021.481c-.183.2-1.282,1.374-1.745,1.869l-.178.19a.337.337,0,0,1-.248.108"
          transform="translate(-516.624 327.357)" fill="#fff" />
        <path id="path788"
          d="M520.4-317.2a.339.339,0,0,1-.227-.087.34.34,0,0,1-.027-.48,51.527,51.527,0,0,1,9.133-8.338c2.09-1.417,3.043-1.628,3.425-1.628a.537.537,0,0,1,.4.136c.408.408-.15,1.835-1.491,3.818A51.14,51.14,0,0,1,527.715-319a.342.342,0,0,1-.48.026.34.34,0,0,1-.026-.48,49.278,49.278,0,0,0,3.838-4.7,8.953,8.953,0,0,0,1.486-2.868,8.832,8.832,0,0,0-2.875,1.487,50.854,50.854,0,0,0-9.008,8.23.338.338,0,0,1-.254.114"
          transform="translate(-508.658 339.998)" fill="#fff" />
        <path id="path790"
          d="M512.226-290.464a.335.335,0,0,1-.152-.036.265.265,0,0,0-.056-.018.34.34,0,0,1-.257-.407.34.34,0,0,1,.406-.257.9.9,0,0,1,.211.074.34.34,0,0,1,.152.456.34.34,0,0,1-.3.188"
          transform="translate(-503.612 317.795)" fill="#fff" />
        <path id="path792"
          d="M512.806-290.215a.338.338,0,0,1-.165-.043c-.047-.026-.093-.051-.141-.073a.341.341,0,0,1-.172-.449.341.341,0,0,1,.449-.172c.066.03.131.064.2.1a.34.34,0,0,1,.131.462.34.34,0,0,1-.3.174"
          transform="translate(-503.943 317.668)" fill="#fff" />
        <path id="path794"
          d="M513.3-289.932a.338.338,0,0,1-.212-.075,2.1,2.1,0,0,0-.185-.127.34.34,0,0,1-.1-.47.34.34,0,0,1,.47-.1,2.7,2.7,0,0,1,.243.169.34.34,0,0,1,.054.478.339.339,0,0,1-.266.128"
          transform="translate(-504.212 317.534)" fill="#fff" />
        <path id="path796"
          d="M513.306-295.881a.344.344,0,0,1-.169-.045.337.337,0,0,1-.168-.253.34.34,0,0,1,.222-.41.343.343,0,0,1,.1-.017,33.891,33.891,0,0,0,4.11-3.082,7.8,7.8,0,0,0-.98-1.195,7.969,7.969,0,0,0-1.153-.947,35.275,35.275,0,0,0-3.033,4.015.344.344,0,0,1-.056.192.34.34,0,0,1-.44.116.359.359,0,0,1-.205-.2.342.342,0,0,1,.02-.3,35.762,35.762,0,0,1,3.394-4.494.341.341,0,0,1,.438-.065,8.772,8.772,0,0,1,1.515,1.2,8.489,8.489,0,0,1,1.234,1.564.34.34,0,0,1-.067.435,34.314,34.314,0,0,1-4.586,3.437.335.335,0,0,1-.172.047"
          transform="translate(-503.462 324.739)" fill="#fff" />
        <path id="path798"
          d="M505.536-290.784a1.673,1.673,0,0,0-1.189.5,13.1,13.1,0,0,0-1.511,3.918c.436-.129.969-.289,1.17-.351a7.9,7.9,0,0,0,2.729-1.176,1.676,1.676,0,0,0,.46-1.526c0-.012,0-.024-.006-.037a1.7,1.7,0,0,0-.454-.829,1.008,1.008,0,0,0-.156-.136,1.689,1.689,0,0,0-.16-.115.323.323,0,0,1-.047-.025.855.855,0,0,0-.124-.062c-.011,0-.069-.03-.079-.036a.379.379,0,0,0-.071-.025l-.062-.018a.917.917,0,0,0-.116-.03A1.4,1.4,0,0,0,505.536-290.784Zm-3.183,5.25a.341.341,0,0,1-.239-.1.342.342,0,0,1-.091-.328c.172-.668,1.069-4.035,1.842-4.808a2.348,2.348,0,0,1,1.67-.7,2.019,2.019,0,0,1,.539.069,1.3,1.3,0,0,1,.16.042l.044.014a.813.813,0,0,1,.165.058.528.528,0,0,1,.119.055,1.049,1.049,0,0,1,.14.07.209.209,0,0,1,.026.014,1.972,1.972,0,0,1,.258.178,1.592,1.592,0,0,1,.236.206,2.371,2.371,0,0,1,.637,1.193.3.3,0,0,1,.006.037,2.355,2.355,0,0,1-.649,2.114c-.137.138-.557.563-3.008,1.345-.322.1-1.472.444-1.766.525a.355.355,0,0,1-.091.012"
          transform="translate(-497.694 317.961)" fill="#fff" />
        <path id="path800"
          d="M559.019-285.529a.34.34,0,0,1-.34-.341v-1.675a.34.34,0,0,1,.34-.34.34.34,0,0,1,.341.34v1.675a.34.34,0,0,1-.341.341"
          transform="translate(-532.126 315.786)" fill="#fff" />
        <path id="path802"
          d="M523.051-273.586a3.547,3.547,0,0,1-2.292-.8,2.57,2.57,0,0,1-.989-1.991v-1.609c0-.248-.277-.457-.605-.457a.688.688,0,0,0-.446.157.386.386,0,0,0-.164.3,2.566,2.566,0,0,1-.982,1.988,3.6,3.6,0,0,1-2.3.793,3.6,3.6,0,0,1-2.3-.793,2.578,2.578,0,0,1-.982-1.988.377.377,0,0,0-.152-.3.74.74,0,0,0-.907,0,.4.4,0,0,0-.161.3,2.574,2.574,0,0,1-.975,1.987,3.626,3.626,0,0,1-2.3.794,3.227,3.227,0,0,1-2.437-1.271,5.677,5.677,0,0,1-.721-1.03.34.34,0,0,1,.164-.452.34.34,0,0,1,.45.161,5.152,5.152,0,0,0,.618.873,2.587,2.587,0,0,0,1.925,1.038,2.941,2.941,0,0,0,1.863-.638,1.9,1.9,0,0,0,.728-1.463,1.057,1.057,0,0,1,.4-.818,1.435,1.435,0,0,1,1.782,0,1.052,1.052,0,0,1,.394.815,1.909,1.909,0,0,0,.736,1.465,2.915,2.915,0,0,0,1.861.636,2.917,2.917,0,0,0,1.862-.637,1.9,1.9,0,0,0,.734-1.464,1.056,1.056,0,0,1,.405-.819,1.354,1.354,0,0,1,.885-.319,1.22,1.22,0,0,1,1.286,1.137v1.609a1.906,1.906,0,0,0,.744,1.469,2.872,2.872,0,0,0,1.857.637,2.393,2.393,0,0,0,2.6-2.106v-4.142a.34.34,0,0,1,.34-.341.34.34,0,0,1,.341.341v4.142a3.066,3.066,0,0,1-3.277,2.787"
          transform="translate(-499.095 311.515)" fill="#fff" />
      </g>
    </g>
  </g>
</svg>