<svg xmlns="http://www.w3.org/2000/svg" xmlns:xlink="http://www.w3.org/1999/xlink" width="88" height="88" viewBox="0 0 88 88">
  <defs>
    <radialGradient id="radial-gradient" cx="0.5" cy="0.5" r="0.5" gradientUnits="objectBoundingBox">
      <stop offset="0" stop-color="#13aa52"/>
      <stop offset="1" stop-color="#0a5529" stop-opacity="0.8"/>
    </radialGradient>
    <filter id="Trazado_1219" x="0" y="0" width="88" height="88" filterUnits="userSpaceOnUse">
      <feOffset dx="-4" dy="7" input="SourceAlpha"/>
      <feGaussianBlur stdDeviation="3" result="blur"/>
      <feFlood flood-color="#2b6e47" flood-opacity="0.4"/>
      <feComposite operator="in" in2="blur"/>
      <feComposite in="SourceGraphic"/>
    </filter>
  </defs>
  <g id="Grupo_580" data-name="Grupo 580" transform="translate(1742 -9449)">
    <g id="Grupo_579" data-name="Grupo 579" transform="translate(-27 4.664)">
      <g transform="matrix(1, 0, 0, 1, -1715, 9444.34)" filter="url(#Trazado_1219)">
        <path id="Trazado_1219-2" data-name="Trazado 1219" d="M35,0A35,35,0,1,1,0,35,35,35,0,0,1,35,0Z" transform="translate(13 2)" fill="url(#radial-gradient)"/>
      </g>
      <g id="Grupo_576" data-name="Grupo 576" transform="translate(-1686.385 9459.511)">
        <path id="path588" d="M370.691-144.34c-1.16,1.821-2.363,2.743-3.567,2.743h-.044c-1.61-.022-3.052-1.746-3.588-2.581v-36.268c.812-2.385,1.952-3.8,3.4-4.217,1.919-.564,3.9.813,4.325,1.133a20.992,20.992,0,0,0,5.111,5.865,8.7,8.7,0,0,1,3.74,5.41c-.217-.152-.423-.309-.661-.444l-.335-.093a.69.69,0,0,0-.591.347.669.669,0,0,0,.265.916,4.725,4.725,0,0,1,2.363,2.852,7.268,7.268,0,0,1-.33,4.25l-.3-.076-.147.022a.67.67,0,0,0-.51.8c1.274,5.512-.188,7.735-1.067,8.532a15.564,15.564,0,0,0-.77-2.52.668.668,0,0,0-.628-.417l-.25.043a.662.662,0,0,0-.374.872c1.966,4.987.455,7.291-.537,8.191a7.8,7.8,0,0,0-.239-.987.673.673,0,0,0-.64-.471l-.2.033a.673.673,0,0,0-.44.851,4.28,4.28,0,0,1-.2,3.577,5.78,5.78,0,0,1-2.558,2.142.7.7,0,0,0-.3-.716.675.675,0,0,0-.928.211" transform="translate(-342.477 185.158)" fill="rgba(255,255,255,0.3)"/>
        <path id="path590" d="M363.348-144.791c.6.9,1.89,2.309,3.231,2.328l.039.361v-.361c1.075,0,2.173-.867,3.262-2.577a1.059,1.059,0,0,1,1.425-.322,1.07,1.07,0,0,1,.391.469,4.971,4.971,0,0,0,1.96-1.772,3.947,3.947,0,0,0,.169-3.284,1,1,0,0,1,.059-.783,1.031,1.031,0,0,1,.613-.522l.252-.046a.389.389,0,0,1,.058,0,1.04,1.04,0,0,1,.985.725c.038.114.071.228.1.34.849-1.1,1.582-3.28,0-7.3a1.044,1.044,0,0,1,.016-.808,1,1,0,0,1,.569-.535.4.4,0,0,1,.063-.017l.25-.043a.389.389,0,0,1,.062-.005,1.032,1.032,0,0,1,.962.642,16.5,16.5,0,0,1,.627,1.9c.725-1,1.561-3.206.524-7.693a1,1,0,0,1,.128-.771,1.035,1.035,0,0,1,.656-.465l.173-.026a.334.334,0,0,1,.12,0,6.657,6.657,0,0,0,.218-3.722,4.383,4.383,0,0,0-2.194-2.635,1,1,0,0,1-.486-.6,1.04,1.04,0,0,1,.083-.805,1.047,1.047,0,0,1,.908-.536.374.374,0,0,1,.1.013l.331.092a8.982,8.982,0,0,0-3.387-4.328,21.27,21.27,0,0,1-5.166-5.906,5.8,5.8,0,0,0-3.1-1.154,3.006,3.006,0,0,0-.856.12c-1.315.378-2.371,1.7-3.14,3.931Zm3.27,3.049h-.044c-2.088-.029-3.713-2.469-3.891-2.747a.36.36,0,0,1-.057-.195v-36.268a.353.353,0,0,1,.019-.117c.852-2.5,2.076-4,3.641-4.447a3.744,3.744,0,0,1,1.057-.148,6.482,6.482,0,0,1,3.585,1.34.375.375,0,0,1,.09.1,20.612,20.612,0,0,0,5.02,5.765,9.033,9.033,0,0,1,3.879,5.638.361.361,0,0,1-.163.366.359.359,0,0,1-.4-.009l-.149-.1c-.144-.1-.288-.206-.446-.3l-.234-.064a.331.331,0,0,0-.238.162.317.317,0,0,0-.023.244.288.288,0,0,0,.142.174,5.086,5.086,0,0,1,2.543,3.073,7.609,7.609,0,0,1-.338,4.468.361.361,0,0,1-.427.229l-.234-.059-.076.011a.312.312,0,0,0-.174.138.288.288,0,0,0-.038.223c1.3,5.623-.178,7.98-1.175,8.884a.358.358,0,0,1-.354.076.359.359,0,0,1-.242-.269,15.136,15.136,0,0,0-.753-2.462.3.3,0,0,0-.267-.188l-.176.031a.277.277,0,0,0-.134.14.324.324,0,0,0,0,.248c2.028,5.141.476,7.59-.629,8.593a.359.359,0,0,1-.355.075.361.361,0,0,1-.242-.271l-.025-.126a6.465,6.465,0,0,0-.2-.817.316.316,0,0,0-.275-.226l-.165.027a.362.362,0,0,0-.138.149.3.3,0,0,0-.018.231,4.639,4.639,0,0,1-.23,3.873,6.024,6.024,0,0,1-2.717,2.288.363.363,0,0,1-.374-.039.361.361,0,0,1-.136-.352.339.339,0,0,0-.142-.35.334.334,0,0,0-.421.1c-1.233,1.935-2.535,2.914-3.873,2.914" transform="translate(-341.972 185.664)" fill="#116149"/>
        <path id="path592" d="M331.7-180.446v36.268c-.543.835-1.979,2.559-3.595,2.581h-.036c-1.21,0-2.408-.922-3.572-2.743a.675.675,0,0,0-.928-.211.689.689,0,0,0-.293.716,5.782,5.782,0,0,1-2.563-2.142,4.28,4.28,0,0,1-.2-3.577.678.678,0,0,0-.433-.851l-.212-.033a.681.681,0,0,0-.634.471,8.847,8.847,0,0,0-.238.987c-.987-.9-2.505-3.2-.531-8.191a.667.667,0,0,0-.38-.872l-.249-.043a.654.654,0,0,0-.623.417,16.028,16.028,0,0,0-.776,2.52c-.873-.8-2.341-3.02-1.068-8.532a.665.665,0,0,0-.509-.8l-.147-.022-.309.076a7.311,7.311,0,0,1-.325-4.25,4.719,4.719,0,0,1,2.37-2.852.667.667,0,0,0,.259-.916.693.693,0,0,0-.591-.347l-.331.093a7.594,7.594,0,0,0-.667.444,8.749,8.749,0,0,1,3.746-5.41,21.151,21.151,0,0,0,5.107-5.865c.423-.32,2.406-1.7,4.324-1.133,1.442.417,2.586,1.832,3.4,4.217" transform="translate(-313.53 185.158)" fill="rgba(255,255,255,0.3)"/>
        <path id="path594" d="M323.424-145.52a1.027,1.027,0,0,1,.878.483c1.091,1.706,2.19,2.573,3.266,2.573l.036.361,0-.361c1.33-.018,2.632-1.432,3.238-2.329v-36.1c-.776-2.23-1.833-3.553-3.144-3.931a3.024,3.024,0,0,0-.857-.12,5.8,5.8,0,0,0-3.1,1.155,21.453,21.453,0,0,1-5.161,5.9,9.042,9.042,0,0,0-3.39,4.328l.329-.092a.383.383,0,0,1,.1-.013,1.046,1.046,0,0,1,.9.529,1.069,1.069,0,0,1,.088.818,1,1,0,0,1-.494.6,4.374,4.374,0,0,0-2.19,2.629,6.711,6.711,0,0,0,.216,3.723.356.356,0,0,1,.124,0l.147.022a1.04,1.04,0,0,1,.682.467,1.009,1.009,0,0,1,.125.777c-1.034,4.478-.195,6.688.529,7.689a16.807,16.807,0,0,1,.629-1.9,1.016,1.016,0,0,1,.958-.645.4.4,0,0,1,.062.005l.249.043a.4.4,0,0,1,.063.017,1,1,0,0,1,.572.537,1.045,1.045,0,0,1,.018.807c-1.59,4.017-.858,6.2-.009,7.3.029-.114.062-.229.1-.347a1.043,1.043,0,0,1,.976-.716l.267.037a.41.41,0,0,1,.056.014,1.025,1.025,0,0,1,.6.514,1.03,1.03,0,0,1,.064.792,3.946,3.946,0,0,0,.171,3.286,4.955,4.955,0,0,0,1.96,1.768,1.044,1.044,0,0,1,.384-.462,1.029,1.029,0,0,1,.556-.163Zm4.18,3.778h-.036c-1.337,0-2.642-.979-3.876-2.91a.323.323,0,0,0-.431-.1.326.326,0,0,0-.132.34.36.36,0,0,1-.133.355.362.362,0,0,1-.377.042A6.022,6.022,0,0,1,319.9-146.3a4.635,4.635,0,0,1-.233-3.87.312.312,0,0,0-.02-.241.313.313,0,0,0-.158-.148l-.177-.027a.34.34,0,0,0-.237.226,5.886,5.886,0,0,0-.179.713l-.051.239a.358.358,0,0,1-.243.266.36.36,0,0,1-.352-.077c-1.1-1.007-2.653-3.463-.624-8.591a.315.315,0,0,0-.006-.246.284.284,0,0,0-.139-.144l-.175-.031a.291.291,0,0,0-.26.186,15.688,15.688,0,0,0-.76,2.467.359.359,0,0,1-.243.267.363.363,0,0,1-.353-.078c-1-.909-2.472-3.271-1.176-8.88a.3.3,0,0,0-.036-.228.311.311,0,0,0-.2-.14l-.05-.007-.241.059a.362.362,0,0,1-.426-.231,7.669,7.669,0,0,1-.333-4.467,5.078,5.078,0,0,1,2.539-3.068.286.286,0,0,0,.149-.173.339.339,0,0,0-.029-.256.327.327,0,0,0-.234-.155l-.232.064a5.408,5.408,0,0,0-.457.3l-.142.1a.361.361,0,0,1-.4.008.36.36,0,0,1-.162-.367,9.1,9.1,0,0,1,3.885-5.636,20.8,20.8,0,0,0,5.016-5.766.35.35,0,0,1,.089-.1,6.48,6.48,0,0,1,3.584-1.34,3.753,3.753,0,0,1,1.06.149c1.559.451,2.785,1.947,3.644,4.446a.366.366,0,0,1,.019.117v36.268a.364.364,0,0,1-.058.2c-.18.278-1.825,2.717-3.893,2.745H327.6" transform="translate(-313.024 185.663)" fill="#116149"/>
        <path id="path596" d="M363.348-144.791c.6.9,1.89,2.309,3.231,2.328l.039.361v-.361c1.075,0,2.173-.867,3.262-2.577a1.059,1.059,0,0,1,1.425-.322,1.07,1.07,0,0,1,.391.469,4.971,4.971,0,0,0,1.96-1.772,3.947,3.947,0,0,0,.169-3.284,1,1,0,0,1,.059-.783,1.031,1.031,0,0,1,.613-.522l.252-.046a.389.389,0,0,1,.058,0,1.04,1.04,0,0,1,.985.725c.038.114.071.228.1.339.849-1.1,1.582-3.28,0-7.3a1.044,1.044,0,0,1,.016-.808,1,1,0,0,1,.569-.535.4.4,0,0,1,.063-.017l.25-.043a.389.389,0,0,1,.062-.005,1.032,1.032,0,0,1,.962.642,16.5,16.5,0,0,1,.627,1.9c.725-1,1.561-3.206.524-7.693a1,1,0,0,1,.128-.771,1.037,1.037,0,0,1,.656-.465l.173-.026a.334.334,0,0,1,.12,0,6.657,6.657,0,0,0,.218-3.722,4.383,4.383,0,0,0-2.194-2.635,1,1,0,0,1-.486-.6,1.04,1.04,0,0,1,.083-.805,1.047,1.047,0,0,1,.908-.536.374.374,0,0,1,.1.013l.331.092a8.982,8.982,0,0,0-3.387-4.328,21.27,21.27,0,0,1-5.166-5.906,5.8,5.8,0,0,0-3.1-1.154,3.006,3.006,0,0,0-.856.12c-1.315.378-2.371,1.7-3.14,3.931Zm3.27,3.049h-.044c-2.088-.029-3.713-2.469-3.891-2.747a.36.36,0,0,1-.057-.195v-36.268a.353.353,0,0,1,.019-.117c.852-2.5,2.076-4,3.641-4.447a3.744,3.744,0,0,1,1.057-.148,6.482,6.482,0,0,1,3.585,1.34.375.375,0,0,1,.09.1,20.612,20.612,0,0,0,5.02,5.765,9.093,9.093,0,0,1,3.864,5.55.357.357,0,0,1,.032.148.361.361,0,0,1-.361.361h-.011a.359.359,0,0,1-.207-.066l-.149-.1c-.144-.1-.288-.206-.446-.3l-.234-.064a.331.331,0,0,0-.238.162.317.317,0,0,0-.023.244.288.288,0,0,0,.142.174,5.086,5.086,0,0,1,2.543,3.073,7.609,7.609,0,0,1-.338,4.468.361.361,0,0,1-.427.229l-.234-.059-.076.011a.312.312,0,0,0-.174.138.288.288,0,0,0-.038.223c1.3,5.623-.178,7.98-1.175,8.884a.358.358,0,0,1-.354.076.36.36,0,0,1-.242-.269,15.137,15.137,0,0,0-.753-2.462.3.3,0,0,0-.267-.188l-.176.031a.277.277,0,0,0-.134.14.324.324,0,0,0,0,.248c2.028,5.141.476,7.59-.629,8.593a.355.355,0,0,1-.355.075.359.359,0,0,1-.242-.27l-.025-.126a6.463,6.463,0,0,0-.2-.817.316.316,0,0,0-.275-.226l-.165.027a.362.362,0,0,0-.138.149.3.3,0,0,0-.018.231,4.639,4.639,0,0,1-.23,3.873,6.024,6.024,0,0,1-2.717,2.288.363.363,0,0,1-.374-.039.361.361,0,0,1-.136-.352.339.339,0,0,0-.142-.35.334.334,0,0,0-.421.1c-1.233,1.935-2.535,2.914-3.873,2.914" transform="translate(-341.972 185.664)" fill="#fff"/>
        <path id="path598" d="M376.383-108.94a.362.362,0,0,1-.314-.173.35.35,0,0,1,.109-.483,3.706,3.706,0,0,0,1.937-2.5,3.742,3.742,0,0,0-.9-2.767.361.361,0,0,1,0-.439.359.359,0,0,1,.424-.11.339.339,0,0,0,.392-.069c.29-.363,2.829-3.708.852-7.161a.368.368,0,0,1-.036-.087,11.338,11.338,0,0,1-.364-2.5.361.361,0,0,1,.356-.366h0a.361.361,0,0,1,.361.356,10.418,10.418,0,0,0,.329,2.281c2.169,3.851-.619,7.527-.945,7.935a1.012,1.012,0,0,1-.415.3,4.1,4.1,0,0,1,.654,2.733,4.4,4.4,0,0,1-2.262,3,.38.38,0,0,1-.184.047" transform="translate(-349.786 150.606)" fill="rgba(255,255,255,0.81)"/>
        <path id="path600" d="M370.288-110.239a1,1,0,0,1-.505-.136,1.035,1.035,0,0,1-.483-.637c-.018-.065-1.817-6.892.2-11.752a1,1,0,0,1,.951-.641.361.361,0,0,1,.361.361.361.361,0,0,1-.361.361.29.29,0,0,0-.279.184c-1.93,4.646-.192,11.237-.174,11.3a.3.3,0,0,0,.145.195.3.3,0,0,0,.228.028.359.359,0,0,1,.445.25.361.361,0,0,1-.25.445,1.038,1.038,0,0,1-.278.038" transform="translate(-345.426 149.329)" fill="rgba(255,255,255,0.81)"/>
        <path id="path602" d="M369.733-168.54a.369.369,0,0,1-.055,0,5.843,5.843,0,0,1-4.593-4.2.361.361,0,0,1,.258-.441.36.36,0,0,1,.441.258,5.1,5.1,0,0,0,4,3.67.361.361,0,0,1,.3.411.361.361,0,0,1-.356.306" transform="translate(-343.4 178.388)" fill="#fff"/>
        <path id="path604" d="M379.413-174.923a.361.361,0,0,1-.31-.175c-.134-.225-3.337-5.5-6.265-5.5a2.389,2.389,0,0,0-.487.047.36.36,0,0,1-.425-.282.361.361,0,0,1,.282-.425,3.074,3.074,0,0,1,.63-.062c3.276,0,6.524,5.252,6.884,5.85a.361.361,0,0,1-.124.5.359.359,0,0,1-.185.052" transform="translate(-347.395 183.128)" fill="#fff"/>
        <path id="path606" d="M394.587-146.024a.356.356,0,0,1-.251-.1c-.014-.015-1.467-1.521-1.165-5.864l-.011-.08c0-.025-.683-4.44-3.234-4.779l-.063,0a.361.361,0,0,1-.341-.379.368.368,0,0,1,.379-.342l.092,0c3.158.419,3.878,5.368,3.884,5.418l.014.154c-.269,3.944.953,5.353.965,5.367a.365.365,0,0,1-.018.506.361.361,0,0,1-.25.1" transform="translate(-357.667 169.271)" fill="#fff"/>
        <path id="path608" d="M386.733-142.416a.361.361,0,0,1-.361-.361c0-.027-.046-2.788-3.045-6.14a.361.361,0,0,1,.028-.51.36.36,0,0,1,.51.028c3.192,3.569,3.23,6.591,3.23,6.621a.361.361,0,0,1-.361.361" transform="translate(-353.999 164.569)" fill="#fff"/>
        <path id="path610" d="M367.893-159.138a.358.358,0,0,1-.194-.057.36.36,0,0,1-.109-.5,2.89,2.89,0,0,1,2.034-1.366,2.537,2.537,0,0,1,.47-.036,4.24,4.24,0,0,1,1.563.328,3.616,3.616,0,0,1,.268-1.4c.642-1.543,2.246-2.392,4.768-2.525l.052.36v.361c-2.234.116-3.627.817-4.154,2.082a3.154,3.154,0,0,0-.177,1.662.36.36,0,0,1-.153.344.362.362,0,0,1-.376.021,3.9,3.9,0,0,0-1.791-.509,1.9,1.9,0,0,0-.347.025,2.2,2.2,0,0,0-1.55,1.045.359.359,0,0,1-.3.166" transform="translate(-344.835 173.426)" fill="#fff"/>
        <path id="path612" d="M381.919-132.349c-1.359,0-2.178-1.435-2.857-2.622-.416-.728-.846-1.481-1.248-1.6-.056-.015-.269-.072-.68.215a.361.361,0,0,1-.5-.09.361.361,0,0,1,.089-.5,1.521,1.521,0,0,1,1.289-.318c.691.21,1.148,1.012,1.678,1.941.869,1.521,1.574,2.565,2.737,2.165a.359.359,0,0,1,.459.224.361.361,0,0,1-.224.459,2.267,2.267,0,0,1-.742.133" transform="translate(-350.108 157.445)" fill="rgba(255,255,255,0.81)"/>
        <path id="path614" d="M364.874-128.05a1.076,1.076,0,0,1-.278-.037.361.361,0,0,1-.255-.442.362.362,0,0,1,.442-.255.319.319,0,0,0,.246-.029.306.306,0,0,0,.143-.187c.4-1.435,3.381-1.026,3.41-1.022a.361.361,0,0,1,.3.41.365.365,0,0,1-.41.3c-.8-.121-2.452-.054-2.607.5a1.019,1.019,0,0,1-.479.622,1.028,1.028,0,0,1-.516.138" transform="translate(-342.966 153.225)" fill="rgba(255,255,255,0.81)"/>
        <path id="path616" d="M323.424-145.52a1.027,1.027,0,0,1,.878.483c1.091,1.706,2.19,2.573,3.266,2.573l.036.361,0-.361c1.33-.018,2.632-1.432,3.238-2.329v-36.1c-.776-2.23-1.833-3.553-3.144-3.931a3.024,3.024,0,0,0-.857-.12,5.8,5.8,0,0,0-3.1,1.155,21.445,21.445,0,0,1-5.161,5.9,9.036,9.036,0,0,0-3.389,4.328l.328-.092a.383.383,0,0,1,.1-.013,1.046,1.046,0,0,1,.9.529,1.069,1.069,0,0,1,.088.818,1,1,0,0,1-.494.6,4.374,4.374,0,0,0-2.19,2.629,6.711,6.711,0,0,0,.216,3.723.356.356,0,0,1,.124,0l.147.022a1.041,1.041,0,0,1,.682.467,1.011,1.011,0,0,1,.125.777c-1.034,4.478-.195,6.688.529,7.689a16.807,16.807,0,0,1,.629-1.9,1.016,1.016,0,0,1,.958-.645.4.4,0,0,1,.062.005l.249.043a.4.4,0,0,1,.063.017,1,1,0,0,1,.572.537,1.045,1.045,0,0,1,.018.807c-1.59,4.017-.858,6.2-.009,7.3.029-.114.062-.229.1-.347a1.043,1.043,0,0,1,.976-.716l.267.037a.41.41,0,0,1,.056.014,1.025,1.025,0,0,1,.6.514,1.03,1.03,0,0,1,.064.792,3.946,3.946,0,0,0,.171,3.286,4.955,4.955,0,0,0,1.96,1.768,1.044,1.044,0,0,1,.384-.462,1.029,1.029,0,0,1,.556-.163Zm4.18,3.778h-.036c-1.337,0-2.642-.979-3.876-2.91a.323.323,0,0,0-.431-.1.326.326,0,0,0-.132.34.36.36,0,0,1-.133.355.362.362,0,0,1-.377.042A6.022,6.022,0,0,1,319.9-146.3a4.635,4.635,0,0,1-.233-3.87.312.312,0,0,0-.02-.241.313.313,0,0,0-.158-.148l-.177-.027a.34.34,0,0,0-.237.226,5.886,5.886,0,0,0-.179.713l-.051.239a.358.358,0,0,1-.243.266.36.36,0,0,1-.352-.077c-1.1-1.007-2.653-3.462-.624-8.591a.315.315,0,0,0-.006-.246.284.284,0,0,0-.139-.144l-.175-.031a.291.291,0,0,0-.26.186,15.688,15.688,0,0,0-.76,2.467.359.359,0,0,1-.243.267.363.363,0,0,1-.353-.078c-1-.909-2.472-3.271-1.176-8.88a.3.3,0,0,0-.036-.228.311.311,0,0,0-.2-.14l-.05-.007-.241.059a.362.362,0,0,1-.426-.231,7.669,7.669,0,0,1-.333-4.467,5.078,5.078,0,0,1,2.539-3.068.286.286,0,0,0,.149-.173.339.339,0,0,0-.029-.256.327.327,0,0,0-.234-.155l-.232.064a5.316,5.316,0,0,0-.457.3l-.142.1a.361.361,0,0,1-.4.008.36.36,0,0,1-.162-.367,9.1,9.1,0,0,1,3.885-5.636,20.8,20.8,0,0,0,5.016-5.766.35.35,0,0,1,.089-.1,6.48,6.48,0,0,1,3.584-1.34,3.753,3.753,0,0,1,1.06.149c1.559.451,2.785,1.947,3.644,4.446a.366.366,0,0,1,.019.117v36.268a.364.364,0,0,1-.058.2c-.18.278-1.825,2.717-3.893,2.745H327.6" transform="translate(-313.024 185.663)" fill="#fff"/>
        <path id="path618" d="M337.535-108.977a4.354,4.354,0,0,1-2.281-3.016,4.118,4.118,0,0,1,.651-2.733.984.984,0,0,1-.4-.29c-.332-.419-3.1-4.112-.953-7.939a10.942,10.942,0,0,0,.329-2.284.361.361,0,0,1,.361-.353h.008a.36.36,0,0,1,.353.368,11.531,11.531,0,0,1-.364,2.5.38.38,0,0,1-.036.087c-1.96,3.431.566,6.794.861,7.166a.318.318,0,0,0,.371.065.362.362,0,0,1,.427.107.361.361,0,0,1,.007.44,3.764,3.764,0,0,0-.9,2.768,3.629,3.629,0,0,0,1.9,2.481l-.337.638" transform="translate(-325.112 150.606)" fill="#fff"/>
        <path id="path620" d="M346.661-110.239a1.024,1.024,0,0,1-.279-.038.362.362,0,0,1-.25-.445.358.358,0,0,1,.445-.25.3.3,0,0,0,.232-.03.292.292,0,0,0,.139-.186c.021-.075,1.765-6.645-.167-11.3a.3.3,0,0,0-.284-.195.361.361,0,0,1-.361-.361.361.361,0,0,1,.361-.361,1.008,1.008,0,0,1,.954.651c2.021,4.871.214,11.678.2,11.746a1.019,1.019,0,0,1-.474.629,1.009,1.009,0,0,1-.512.14" transform="translate(-332.338 149.329)" fill="#fff"/>
        <path id="path622" d="M343.382-168.541a.362.362,0,0,1-.356-.306.361.361,0,0,1,.3-.411,5.1,5.1,0,0,0,4-3.67.361.361,0,0,1,.441-.258.361.361,0,0,1,.258.441,5.845,5.845,0,0,1-4.592,4.2.378.378,0,0,1-.056,0" transform="translate(-330.53 178.389)" fill="#fff"/>
        <path id="path624" d="M329.739-174.923a.356.356,0,0,1-.186-.052.36.36,0,0,1-.123-.5c.361-.6,3.622-5.85,6.88-5.85a3.2,3.2,0,0,1,.635.062.36.36,0,0,1,.281.426.361.361,0,0,1-.426.281,2.46,2.46,0,0,0-.49-.047c-2.324,0-5.029,3.457-6.262,5.5a.361.361,0,0,1-.309.174" transform="translate(-322.569 183.128)" fill="#fff"/>
        <path id="path626" d="M317.959-146.024a.358.358,0,0,1-.234-.086.36.36,0,0,1-.041-.508c.053-.062,1.238-1.49.977-5.325l.006-.175c.009-.083.722-5.032,3.856-5.449l.122-.008a.36.36,0,0,1,.379.342.361.361,0,0,1-.341.379l-.093.005c-2.526.336-3.2,4.751-3.205,4.8l0,.1c.275,4.018-1,5.631-1.148,5.8a.362.362,0,0,1-.275.126" transform="translate(-315.694 169.271)" fill="#fff"/>
        <path id="path628" d="M328.009-142.416h0a.36.36,0,0,1-.36-.36c0-.03.037-3.055,3.236-6.621a.362.362,0,0,1,.51-.028.362.362,0,0,1,.028.51c-3.006,3.352-3.051,6.113-3.051,6.14a.361.361,0,0,1-.361.36" transform="translate(-321.559 164.569)" fill="#fff"/>
        <path id="path630" d="M338.87-159.139a.361.361,0,0,1-.3-.165,2.2,2.2,0,0,0-1.538-1.043,1.918,1.918,0,0,0-.364-.028,3.9,3.9,0,0,0-1.792.51.362.362,0,0,1-.376-.022.361.361,0,0,1-.152-.344,3.089,3.089,0,0,0-.174-1.658c-.528-1.269-1.922-1.969-4.143-2.086a.372.372,0,0,1-.355-.37.35.35,0,0,1,.348-.351c2.568.133,4.173.983,4.816,2.526a3.476,3.476,0,0,1,.269,1.4,4.161,4.161,0,0,1,1.56-.327,2.607,2.607,0,0,1,.484.038,2.9,2.9,0,0,1,2.025,1.362.362.362,0,0,1-.107.5.365.365,0,0,1-.2.058" transform="translate(-322.739 173.427)" fill="#fff"/>
        <path id="path632" d="M329.349-132.345a2.259,2.259,0,0,1-.742-.133.36.36,0,0,1-.223-.459.36.36,0,0,1,.459-.224c1.164.4,1.868-.643,2.737-2.165.53-.928.988-1.73,1.664-1.937a1.559,1.559,0,0,1,1.31.314.361.361,0,0,1,.089.5.361.361,0,0,1-.5.09.871.871,0,0,0-.7-.212c-.388.119-.818.872-1.234,1.6-.678,1.188-1.5,2.623-2.857,2.623" transform="translate(-321.976 157.441)" fill="#fff"/>
        <path id="path634" d="M348.893-128.044a1.028,1.028,0,0,1-.516-.138,1.018,1.018,0,0,1-.479-.626c-.152-.553-1.8-.618-2.6-.5a.362.362,0,0,1-.411-.3.361.361,0,0,1,.3-.411c.029-.005,3.015-.394,3.405,1.02a.307.307,0,0,0,.142.19.324.324,0,0,0,.244.029.36.36,0,0,1,.443.254.36.36,0,0,1-.254.443,1.064,1.064,0,0,1-.278.038" transform="translate(-331.617 153.22)" fill="#fff"/>
      </g>
    </g>
  </g>
</svg>
