<svg xmlns="http://www.w3.org/2000/svg" xmlns:xlink="http://www.w3.org/1999/xlink" width="88" height="88"
  viewBox="0 0 88 88">
  <defs>
    <radialGradient id="radial-gradient" cx="0.5" cy="0.5" r="0.5" gradientUnits="objectBoundingBox">
      <stop offset="0" stop-color="#13aa52" />
      <stop offset="1" stop-color="#0a5529" stop-opacity="0.8" />
    </radialGradient>
    <filter id="Trazado_1221" x="0" y="0" width="88" height="88" filterUnits="userSpaceOnUse">
      <feOffset dx="-4" dy="7" input="SourceAlpha" />
      <feGaussianBlur stdDeviation="3" result="blur" />
      <feFlood flood-color="#2e6d48" flood-opacity="0.4" />
      <feComposite operator="in" in2="blur" />
      <feComposite in="SourceGraphic" />
    </filter>
  </defs>
  <g id="Grupo_583" data-name="Grupo 583" transform="translate(1574 -9449)">
    <g id="Grupo_582" data-name="Grupo 582" transform="translate(8 0)">
      <g transform="matrix(1, 0, 0, 1, -1582, 9449)" filter="url(#Trazado_1221)">
        <path id="Trazado_1221-2" data-name="Trazado 1221" d="M35,0A35,35,0,1,1,0,35,35,35,0,0,1,35,0Z"
          transform="translate(13 2)" fill="url(#radial-gradient)" />
      </g>
      <g id="Profesionales_con_experiencia" data-name="Profesionales con experiencia"
        transform="translate(-1555.853 9463.904)">
        <path id="Trazado_1151" data-name="Trazado 1151" d="M1159.168,1368.208v6.434l4.129-2.469V1365.7Z"
          transform="translate(-1135.595 -1343.069)" fill="#f9f9f9" opacity="0.5" />
        <path id="Trazado_1150" data-name="Trazado 1150"
          d="M211.23,727.284a3.887,3.887,0,1,1,7.4-2.109,3.532,3.532,0,0,1-1.558,3.738,3.827,3.827,0,0,1-4.235.134.392.392,0,0,0-.46-.008q-1.456.866-2.929,1.7a.525.525,0,0,0-.288.53q.011,2.826,0,5.652a.55.55,0,0,0,.318.547q2.808,1.619,5.6,3.265a.478.478,0,0,0,.681-.071,4.565,4.565,0,1,1-1.5,3.231c.011-.3.084-.6.094-.9a.436.436,0,0,0-.141-.339q-2.967-1.745-5.952-3.458a.47.47,0,0,0-.394.006q-2.527,1.451-5.037,2.932a.549.549,0,0,0-.227.4c-.018,1.361,0,2.723-.019,4.083,0,.264.154.318.34.392a4.011,4.011,0,0,1,2.475,3.641,3.885,3.885,0,0,1-7.544,1.273,3.854,3.854,0,0,1,2.2-4.893.668.668,0,0,0,.5-.759c-.028-1.2-.016-2.406,0-3.609a.487.487,0,0,0-.281-.489q-2.447-1.408-4.879-2.842a.514.514,0,0,0-.6,0q-2.866,1.665-5.744,3.309a.412.412,0,0,0-.255.51,4.63,4.63,0,0,1-3.831,5.441,4.682,4.682,0,0,1-5.186-3.759,4.563,4.563,0,0,1,4.69-5.385,4.357,4.357,0,0,1,3.028,1.33.374.374,0,0,0,.55.085q2.742-1.623,5.5-3.217a.522.522,0,0,0,.3-.521q-.013-3.008,0-6.016a.551.551,0,0,0-.309-.552q-1.6-.914-3.17-1.865a.448.448,0,0,0-.628.053,3.928,3.928,0,0,1-6.3-3.847,4.02,4.02,0,0,1,3.429-3.04,3.914,3.914,0,0,1,4.2,4.5.476.476,0,0,0,.274.581c1.067.6,2.122,1.23,3.175,1.858a.447.447,0,0,0,.527.01q2.605-1.534,5.224-3.043a.493.493,0,0,0,.281-.492c-.007-1.787-.01-3.573,0-5.359,0-.266-.111-.344-.336-.417a4.589,4.589,0,1,1,5.646-5.808,4.586,4.586,0,0,1-2.938,5.755.4.4,0,0,0-.344.456q.019,2.716,0,5.433a.524.524,0,0,0,.294.523q2.573,1.48,5.133,2.984a.5.5,0,0,0,.6-.007C209.473,728.3,210.345,727.8,211.23,727.284Zm-14.354,2.9c.142.09.238.157.339.215,1.335.771,2.674,1.536,4,2.317a.518.518,0,0,0,.595,0c1.384-.783,2.774-1.555,4.161-2.332.09-.051.171-.115.28-.189-.079-.055-.125-.093-.176-.121-1.45-.814-2.9-1.632-4.357-2.431a.547.547,0,0,0-.453.019c-1.133.634-2.256,1.289-3.382,1.938C197.564,729.778,197.242,729.967,196.877,730.18Zm5.741,9.659c.115-.052.171-.073.222-.1,1.4-.8,2.8-1.6,4.187-2.421a.584.584,0,0,0,.232-.427c.016-1.529.011-3.058.009-4.587a2.039,2.039,0,0,0-.041-.282,1.824,1.824,0,0,0-.168.073c-1.42.814-2.842,1.624-4.251,2.456a.593.593,0,0,0-.2.444c-.015,1.492-.01,2.985-.008,4.478C202.6,739.576,202.608,739.681,202.617,739.839Zm-6.715-7.725c-.009.2-.018.307-.018.414,0,1.433.007,2.865-.006,4.3a.54.54,0,0,0,.313.544c1.34.759,2.672,1.533,4.008,2.3.1.057.2.1.329.159a1.779,1.779,0,0,0,.027-.194c0-1.53.009-3.059-.01-4.589a.59.59,0,0,0-.27-.406c-.862-.518-1.74-1.012-2.613-1.513Zm5.615-19.552a2.523,2.523,0,0,0-2.546,2.54,2.536,2.536,0,1,0,2.546-2.54Zm-19.73,31.483a2.528,2.528,0,1,0,2.5-2.527A2.484,2.484,0,0,0,181.787,744.045Zm37.068-2.527a2.509,2.509,0,0,0-2.548,2.491,2.527,2.527,0,1,0,5.055.029A2.482,2.482,0,0,0,218.856,741.518Zm-2.238-15.892a1.679,1.679,0,0,0-1.7-1.742,1.877,1.877,0,0,0-1.969,1.77,1.9,1.9,0,0,0,1.741,1.894A1.876,1.876,0,0,0,216.618,725.626Zm-13.284,24.846A1.83,1.83,0,1,0,201.5,752.3,1.869,1.869,0,0,0,203.334,750.472Zm-16.092-22.929a1.83,1.83,0,1,0-1.836-1.833A1.873,1.873,0,0,0,187.242,727.543Z"
          transform="translate(-179.723 -710.504)" fill="#f9f9f9" fill-rule="evenodd" />
      </g>
    </g>
  </g>
</svg>