<svg xmlns="http://www.w3.org/2000/svg" xmlns:xlink="http://www.w3.org/1999/xlink" width="88" height="88"
  viewBox="0 0 88 88">
  <defs>
    <radialGradient id="radial-gradient" cx="0.5" cy="0.5" r="0.5" gradientUnits="objectBoundingBox">
      <stop offset="0" stop-color="#13aa52" />
      <stop offset="1" stop-color="#0a5529" stop-opacity="0.8" />
    </radialGradient>
    <filter id="Elipse_26" x="0" y="0" width="88" height="88" filterUnits="userSpaceOnUse">
      <feOffset dx="-4" dy="7" input="SourceAlpha" />
      <feGaussianBlur stdDeviation="3" result="blur" />
      <feFlood flood-color="#2f6d49" flood-opacity="0.4" />
      <feComposite operator="in" in2="blur" />
      <feComposite in="SourceGraphic" />
    </filter>
  </defs>
  <g id="Grupo_584" data-name="Grupo 584" transform="translate(1493 -9449)">
    <g transform="matrix(1, 0, 0, 1, -1493, 9449)" filter="url(#Elipse_26)">
      <circle id="Elipse_26-2" data-name="Elipse 26" cx="35" cy="35" r="35" transform="translate(13 2)"
        fill="url(#radial-gradient)" />
    </g>
    <g id="Soporte_continuo" data-name="Soporte continuo" transform="translate(-1469 9464)">
      <path id="Trazado_1130" data-name="Trazado 1130" d="M0,10.188C.205,10.188,11.76,0,11.76,0l4.171,4.786L4.1,15.248Z"
        transform="translate(15.099 25.989) rotate(82)" fill="#fff" opacity="0.51" />
      <path id="Trazado_1129" data-name="Trazado 1129"
        d="M360.064,1390.736c.205,0,11.76-10.188,11.76-10.188l4.171,4.786L364.166,1395.8Z"
        transform="translate(-327.231 -1354.814)" fill="#fff" opacity="0.51" />
      <g id="Grupo_306" data-name="Grupo 306" transform="translate(0.659)">
        <path id="Trazado_1115" data-name="Trazado 1115"
          d="M318.313,685.891c1.123-1.25,2.195-2.462,3.29-3.653a14.525,14.525,0,0,1,1.613-1.583,5.613,5.613,0,0,1,2.558-1.038,6.773,6.773,0,0,0,1.949-.71c2.275-1.22,4.524-2.49,6.781-3.745,1.811-1.007,2.3-2.087,2.033-4.143-.252-1.912-.417-3.835-.622-5.752-.126-1.181-.254-2.362-.385-3.57.193-.061.361-.11.527-.167a1.545,1.545,0,0,0,1.043-1.743c-.041-.934-.455-1.549-1.22-1.682a2.575,2.575,0,0,0-1,.089q-5.6,1.335-11.2,2.706a1.584,1.584,0,0,0-.769.512,4.487,4.487,0,0,1-5.156,1.321,2.448,2.448,0,0,1-.808-4.259c1.2-1.118,2.433-2.191,3.656-3.279.443-.394.878-.8,1.352-1.155a3.515,3.515,0,0,1,4.628.27c.766.729,1.456,1.538,2.218,2.351l-.908.81c-.584-.642-1.146-1.265-1.714-1.882a2.516,2.516,0,0,0-3.985-.207q-2.2,1.952-4.381,3.926a1.308,1.308,0,0,0,.511,2.391,3.356,3.356,0,0,0,3.816-1.242,1.824,1.824,0,0,1,1.094-.673c3.806-.917,7.608-1.855,11.411-2.785a2.684,2.684,0,0,1,3.322,1.378,3.159,3.159,0,0,1-.852,3.992.793.793,0,0,0-.24.624c.173,1.851.4,3.7.57,5.547a37.059,37.059,0,0,1,.286,4.148,3.609,3.609,0,0,1-1.939,3.072c-2.134,1.252-4.322,2.41-6.469,3.641a12.614,12.614,0,0,1-4.022,1.575,3.422,3.422,0,0,0-1.787,1.006c-3.376,3.718-6.694,7.489-10.031,11.244l-.562.632L301,683.248l3.818-4.36.824.691,3.024-3.441.868.777-.526.7Zm-3.276,3.725-10.118-9.01L302.7,683.15l10.113,9Zm2.5-2.835-9.318-8.294-1.68,1.924,9.31,8.285Z"
          transform="translate(-301.004 -653.297)" fill="#fff" fill-rule="evenodd" />
        <path id="Trazado_1116" data-name="Trazado 1116"
          d="M401.589,752.979l9.834-8.686-1.519-1.758.91-.86,4.141,4.688.882-.724,4.008,4.567L407.27,761.32c-1.648-1.864-3.277-3.705-4.9-5.548-1.29-1.461-2.595-2.909-3.862-4.391a3.783,3.783,0,0,0-1.932-1.313,4.99,4.99,0,0,1-.515-.2l.436-1.128a4.943,4.943,0,0,1,2.727,1.545C399.971,751.181,400.764,752.045,401.589,752.979Zm5.793,6.562,10.7-9.446-2.342-2.658-10.7,9.442Zm6.65-12.307-1.777-2.016-9.837,8.694,1.77,2.017Z"
          transform="translate(-373.574 -720.765)" fill="#fff" fill-rule="evenodd" />
        <path id="Trazado_1117" data-name="Trazado 1117"
          d="M341.6,682.864c.428,2.251.062,3.022-1.9,4.05.39,2.332.072,3.013-1.808,4.024a8.908,8.908,0,0,1-.025,2.041,2.767,2.767,0,0,1-3.947,1.823c-1.922-.837-3.817-1.738-5.7-2.653a2.726,2.726,0,0,1-1.64-2.7,2.759,2.759,0,0,1,1.857-2.607c.069-.028.133-.068.237-.121a3.007,3.007,0,0,1,1.9-4.05c-.4-2.275-.01-3.108,1.931-4.071a3.085,3.085,0,0,1,.267-2.854,2.565,2.565,0,0,1,1.591-1.109l.284,1.131c-1.021.669-1.377,1.355-.986,2.147a2.281,2.281,0,0,0,.957.968c1.774.886,3.583,1.7,5.377,2.548a1.647,1.647,0,0,0,1.818-.086,1.609,1.609,0,0,0,.578-1.832l1.067-.412C344.178,680.411,343.414,681.939,341.6,682.864Zm-2.934,5.12a1.465,1.465,0,0,0-.849-1.231c-1.956-.938-3.916-1.868-5.9-2.754a1.549,1.549,0,0,0-2.04.816,1.594,1.594,0,0,0,.7,2.094c.3.165.612.3.919.44,1.6.754,3.2,1.525,4.818,2.256A1.644,1.644,0,0,0,338.661,687.984Zm.111-2.272a1.674,1.674,0,0,0,1.768-1.262,1.6,1.6,0,0,0-.932-1.817c-1.874-.893-3.754-1.777-5.646-2.632a1.859,1.859,0,0,0-1.033-.138,1.573,1.573,0,0,0-1.315,1.442,1.658,1.658,0,0,0,1.022,1.624c1.856.888,3.722,1.756,5.589,2.621A2.878,2.878,0,0,0,338.771,685.712Zm-9.308,2.191a3.983,3.983,0,0,0-.748.209,1.511,1.511,0,0,0-.882,1.405,1.565,1.565,0,0,0,.976,1.525q2.733,1.3,5.477,2.571a1.626,1.626,0,1,0,1.376-2.926q-2.681-1.274-5.375-2.522A6.522,6.522,0,0,0,329.463,687.9Z"
          transform="translate(-319.961 -669.119)" fill="#fff" fill-rule="evenodd" />
        <path id="Trazado_1118" data-name="Trazado 1118"
          d="M331.457,763.561a.783.783,0,0,1-.835-.8.842.842,0,0,1,.824-.893.917.917,0,0,1,.867.883A.855.855,0,0,1,331.457,763.561Z"
          transform="translate(-322.962 -735.13)" fill="#fff" fill-rule="evenodd" />
        <path id="Trazado_1119" data-name="Trazado 1119"
          d="M453.683,762.741a.789.789,0,0,1-.816.813.85.85,0,0,1-.868-.846.918.918,0,0,1,.844-.841A.851.851,0,0,1,453.683,762.741Z"
          transform="translate(-415.049 -735.128)" fill="#fff" fill-rule="evenodd" />
      </g>
    </g>
  </g>
</svg>