<svg xmlns="http://www.w3.org/2000/svg" xmlns:xlink="http://www.w3.org/1999/xlink" width="123.58" height="39.865"
  viewBox="0 0 123.58 39.865">
  <defs>
    <clipPath id="clip-path">
      <rect width="123.58" height="39.866" fill="none" />
    </clipPath>
    <filter id="Trazado_1217" x="0" y="0" width="37.657" height="43.865" filterUnits="userSpaceOnUse">
      <feOffset dx="-1" dy="2" input="SourceAlpha" />
      <feGaussianBlur stdDeviation="1" result="blur" />
      <feFlood flood-opacity="0.251" />
      <feComposite operator="in" in2="blur" />
      <feComposite in="SourceGraphic" />
    </filter>
    <filter id="Trazado_1218" x="0.5" y="3.5" width="37.76" height="37.76" filterUnits="userSpaceOnUse">
      <feOffset dy="3" input="SourceAlpha" />
      <feGaussianBlur stdDeviation="3" result="blur-2" />
      <feFlood flood-opacity="0.471" />
      <feComposite operator="in" in2="blur-2" />
      <feComposite in="SourceGraphic" />
    </filter>
  </defs>
  <g id="Grupo_de_desplazamiento_6" data-name="Grupo de desplazamiento 6" clip-path="url(#clip-path)"
    style="isolation: isolate">
    <g id="Grupo_577" data-name="Grupo 577" transform="translate(-699.5 -6339.567)">
      <path id="Trazado_1216" data-name="Trazado 1216"
        d="M1.36,0V-14H3.92V-2h6.2V0ZM15.8.24a4.693,4.693,0,0,1-2.1-.41,2.837,2.837,0,0,1-1.22-1.09,2.9,2.9,0,0,1-.4-1.5A2.729,2.729,0,0,1,13.16-5a5.136,5.136,0,0,1,3.24-.86h2.52V-6.1a1.836,1.836,0,0,0-.58-1.5,2.183,2.183,0,0,0-1.44-.48,2.474,2.474,0,0,0-1.36.37,1.593,1.593,0,0,0-.72,1.09h-2.5a3.489,3.489,0,0,1,.73-1.88,4.087,4.087,0,0,1,1.63-1.23,5.616,5.616,0,0,1,2.24-.43A4.921,4.921,0,0,1,20.26-9.1a3.761,3.761,0,0,1,1.22,3V0H19.3l-.24-1.6A3.7,3.7,0,0,1,17.83-.28,3.626,3.626,0,0,1,15.8.24Zm.58-2a2.119,2.119,0,0,0,1.71-.72,3.5,3.5,0,0,0,.77-1.78H16.68a2.274,2.274,0,0,0-1.46.37,1.145,1.145,0,0,0-.44.91,1.048,1.048,0,0,0,.44.9A1.928,1.928,0,0,0,16.38-1.76ZM23.98,0V-9.92h2.26l.22,1.34a3.522,3.522,0,0,1,1.27-1.15,3.768,3.768,0,0,1,1.83-.43,3.4,3.4,0,0,1,3.26,1.78,3.853,3.853,0,0,1,1.45-1.3,4.2,4.2,0,0,1,1.99-.48A3.8,3.8,0,0,1,39.24-9a4.94,4.94,0,0,1,1.04,3.4V0H37.72V-5.36a3.323,3.323,0,0,0-.49-1.96A1.736,1.736,0,0,0,35.72-8a2.061,2.061,0,0,0-1.67.76,3.23,3.23,0,0,0-.63,2.12V0H30.86V-5.36a3.273,3.273,0,0,0-.5-1.96A1.785,1.785,0,0,0,28.82-8a2.04,2.04,0,0,0-1.65.76,3.23,3.23,0,0,0-.63,2.12V0ZM48.66.24A4.33,4.33,0,0,1,46.7-.18a3.533,3.533,0,0,1-1.36-1.18L45.06,0H42.78V-14.4h2.56v5.9a4.556,4.556,0,0,1,1.27-1.16,3.78,3.78,0,0,1,2.05-.5,4.657,4.657,0,0,1,2.5.68A4.872,4.872,0,0,1,52.9-7.62a5.53,5.53,0,0,1,.64,2.68,5.472,5.472,0,0,1-.64,2.67A4.815,4.815,0,0,1,51.16-.43,4.709,4.709,0,0,1,48.66.24ZM48.12-2a2.7,2.7,0,0,0,2.02-.82,2.908,2.908,0,0,0,.8-2.12,2.977,2.977,0,0,0-.8-2.14,2.671,2.671,0,0,0-2.02-.84,2.678,2.678,0,0,0-2.03.83,2.964,2.964,0,0,0-.79,2.13,2.964,2.964,0,0,0,.79,2.13A2.678,2.678,0,0,0,48.12-2ZM60.44.24a4.657,4.657,0,0,1-2.5-.68A4.872,4.872,0,0,1,56.2-2.3a5.53,5.53,0,0,1-.64-2.68,5.472,5.472,0,0,1,.64-2.67,4.815,4.815,0,0,1,1.74-1.84,4.709,4.709,0,0,1,2.5-.67,4.33,4.33,0,0,1,1.96.42,3.533,3.533,0,0,1,1.36,1.18V-14.4h2.56V0H64.04l-.28-1.42A4.556,4.556,0,0,1,62.49-.26,3.78,3.78,0,0,1,60.44.24ZM60.98-2a2.678,2.678,0,0,0,2.03-.83,2.964,2.964,0,0,0,.79-2.13,2.964,2.964,0,0,0-.79-2.13,2.678,2.678,0,0,0-2.03-.83,2.7,2.7,0,0,0-2.02.82,2.908,2.908,0,0,0-.8,2.12,2.977,2.977,0,0,0,.8,2.14A2.671,2.671,0,0,0,60.98-2ZM72.4.24a4.693,4.693,0,0,1-2.1-.41,2.837,2.837,0,0,1-1.22-1.09,2.9,2.9,0,0,1-.4-1.5A2.729,2.729,0,0,1,69.76-5,5.136,5.136,0,0,1,73-5.86h2.52V-6.1a1.836,1.836,0,0,0-.58-1.5,2.183,2.183,0,0,0-1.44-.48,2.474,2.474,0,0,0-1.36.37,1.593,1.593,0,0,0-.72,1.09h-2.5a3.489,3.489,0,0,1,.73-1.88,4.087,4.087,0,0,1,1.63-1.23,5.616,5.616,0,0,1,2.24-.43A4.921,4.921,0,0,1,76.86-9.1a3.761,3.761,0,0,1,1.22,3V0H75.9l-.24-1.6A3.7,3.7,0,0,1,74.43-.28,3.626,3.626,0,0,1,72.4.24Zm.58-2a2.119,2.119,0,0,0,1.71-.72,3.5,3.5,0,0,0,.77-1.78H73.28a2.274,2.274,0,0,0-1.46.37,1.145,1.145,0,0,0-.44.91,1.048,1.048,0,0,0,.44.9A1.928,1.928,0,0,0,72.98-1.76Z"
        transform="translate(745 6367.067)" fill="#0f2137" />
      <g transform="matrix(1, 0, 0, 1, 699.5, 6339.57)" filter="url(#Trazado_1217)">
        <path id="Trazado_1217-2" data-name="Trazado 1217"
          d="M589.814,6433.848l13.821-8.285v-17.257l-13.829-8.325-13.829,8.331v17.251Z"
          transform="translate(-569.98 -6396.98)" fill="#13aa52" stroke="#13aa52" stroke-linecap="round"
          stroke-linejoin="round" stroke-width="4" />
      </g>
      <g transform="matrix(1, 0, 0, 1, 699.5, 6339.57)" filter="url(#Trazado_1218)">
        <path id="Trazado_1218-2" data-name="Trazado 1218"
          d="M467.474,253.21h5.082l2.581,6.244,3.975,9.616,2.768-.82.944,2.851-6.036,1.869-3.849-9.354-5.837,8.328h-4.038l8.2-12.283-1.1-3.283h-2.692Z"
          transform="translate(-453.56 -243.71)" fill="#fff" />
      </g>
    </g>
  </g>
</svg>